<svg width="100" height="118" viewBox="0 0 100 118" fill="none" xmlns="http://www.w3.org/2000/svg">
<path d="M5.5254 91.0791H8.00855L13.5011 105.518H10.6068L9.25834 101.916H4.20983L2.89426 105.518H0L5.5254 91.0791ZM8.765 99.9592L6.7752 94.2858L4.70317 99.9592H8.765Z" fill="white"/>
<path d="M26.8538 105.533V95.9788L23.1373 103.099H21.608L17.8915 95.9788V105.533H15.0794V91.0947H18.0888L22.3644 99.3171L26.6729 91.0947H29.6658V105.533H26.8538Z" fill="white"/>
<path d="M44.3018 101.801C44.3018 102.409 44.1867 102.952 43.94 103.412C43.6933 103.873 43.3644 104.267 42.9369 104.563C42.5093 104.876 42.016 105.106 41.4569 105.27C40.8977 105.435 40.2893 105.517 39.6644 105.517H32.6919V91.0786H40.4209C40.9142 91.0786 41.3746 91.1937 41.7858 91.4075C42.1969 91.6213 42.5422 91.9008 42.8218 92.2462C43.1013 92.5915 43.3316 92.9862 43.4796 93.4302C43.6276 93.8742 43.7098 94.3182 43.7098 94.7622C43.7098 95.4693 43.5289 96.1271 43.1836 96.752C42.8382 97.3769 42.312 97.8209 41.6378 98.1169C42.46 98.3636 43.1178 98.7911 43.5947 99.4325C44.0716 100.057 44.3018 100.847 44.3018 101.801ZM35.471 93.4795V97.1138H39.2204C39.6973 97.1138 40.092 96.9494 40.4373 96.6205C40.7662 96.2916 40.9306 95.8476 40.9306 95.272C40.9306 94.7129 40.7826 94.2689 40.4702 93.9564C40.1577 93.6275 39.796 93.4631 39.3355 93.4631H35.471V93.4795ZM41.4733 101.274C41.4733 101.011 41.424 100.765 41.3418 100.534C41.2595 100.304 41.128 100.09 40.98 99.9094C40.832 99.7285 40.6511 99.5969 40.4537 99.4983C40.2564 99.3996 40.0262 99.3503 39.7795 99.3503H35.471V103.149H39.648C39.9111 103.149 40.1413 103.1 40.3715 103.001C40.6017 102.902 40.7826 102.771 40.9471 102.606C41.1115 102.442 41.2431 102.245 41.3253 102.014C41.424 101.784 41.4733 101.537 41.4733 101.274Z" fill="white"/>
<path d="M46.5057 105.533V91.0947H49.3177V105.533H46.5057Z" fill="white"/>
<path d="M63.1148 93.5453H58.4938V105.517H55.7147V93.5453H51.0938V91.0786H63.1148V93.5453Z" fill="white"/>
<path d="M64.9071 105.533V91.0947H67.7192V105.533H64.9071Z" fill="white"/>
<path d="M76.8785 105.632C75.826 105.632 74.8558 105.418 74.0007 105.007C73.1455 104.596 72.4055 104.037 71.7806 103.363C71.1557 102.672 70.6788 101.899 70.3499 101.011C70.0046 100.123 69.8401 99.235 69.8401 98.3141C69.8401 97.3439 70.021 96.423 70.3828 95.5514C70.7446 94.6634 71.2379 93.8905 71.8628 93.2163C72.4877 92.5421 73.2442 91.9994 74.1158 91.6047C74.9873 91.21 75.9247 91.0127 76.9442 91.0127C77.9803 91.0127 78.934 91.2265 79.8056 91.654C80.6607 92.0816 81.4007 92.6407 82.0092 93.3314C82.6177 94.0221 83.0946 94.8114 83.4399 95.683C83.7852 96.571 83.9497 97.459 83.9497 98.3635C83.9497 99.3337 83.7688 100.238 83.4234 101.126C83.0781 101.998 82.5848 102.771 81.9599 103.445C81.335 104.119 80.595 104.645 79.7234 105.056C78.8354 105.435 77.898 105.632 76.8785 105.632ZM72.6851 98.2977C72.6851 98.9226 72.7837 99.531 72.9646 100.107C73.162 100.682 73.4251 101.208 73.7869 101.652C74.1487 102.096 74.5927 102.458 75.1024 102.738C75.6287 103.001 76.2207 103.149 76.8785 103.149C77.5527 103.149 78.1612 103.017 78.6709 102.738C79.1972 102.458 79.6412 102.096 79.9865 101.636C80.3483 101.175 80.6114 100.649 80.7923 100.074C80.9732 99.4981 81.0719 98.9061 81.0719 98.3141C81.0719 97.6892 80.9732 97.0808 80.7759 96.5052C80.5785 95.9297 80.299 95.4034 79.9372 94.9594C79.5754 94.5154 79.1314 94.1536 78.6216 93.8905C78.0954 93.6274 77.5198 93.4958 76.862 93.4958C76.1878 93.4958 75.5793 93.6274 75.0531 93.907C74.5269 94.1865 74.0829 94.5483 73.7375 95.0088C73.3922 95.4692 73.1126 95.979 72.9317 96.5545C72.7837 97.1301 72.6851 97.7057 72.6851 98.2977Z" fill="white"/>
<path d="M88.8998 96.2748V105.533H86.0878V91.0947H88.2585L95.7901 100.567V91.1112H98.6022V105.533H96.3163L88.8998 96.2748Z" fill="white"/>
<path d="M3.28893 113.789C3.2396 113.723 3.15737 113.657 3.0587 113.608C2.96004 113.542 2.86137 113.493 2.74626 113.443C2.63115 113.394 2.49958 113.361 2.36803 113.328C2.23647 113.295 2.08847 113.279 1.94047 113.279C1.56224 113.279 1.26624 113.345 1.10179 113.493C0.920903 113.641 0.838674 113.838 0.838674 114.085C0.838674 114.216 0.871563 114.331 0.920897 114.414C0.970231 114.496 1.05245 114.578 1.16757 114.644C1.28268 114.71 1.41424 114.759 1.57868 114.808C1.74313 114.858 1.94047 114.907 2.15425 114.956C2.41736 115.006 2.64759 115.071 2.84492 115.154C3.05871 115.219 3.22315 115.318 3.37116 115.417C3.51916 115.515 3.63427 115.647 3.70005 115.811C3.78227 115.959 3.81516 116.157 3.81516 116.37C3.81516 116.601 3.76582 116.814 3.6836 116.979C3.58493 117.16 3.46982 117.291 3.30537 117.406C3.14093 117.522 2.96004 117.604 2.72981 117.653C2.49958 117.702 2.26936 117.735 2.02269 117.735C1.64446 117.735 1.28269 117.67 0.937348 117.554C0.59201 117.439 0.279559 117.258 0 117.028L0.296002 116.502C0.378225 116.584 0.460447 116.666 0.592004 116.732C0.707117 116.814 0.838674 116.88 1.00312 116.946C1.15112 117.012 1.31557 117.061 1.49646 117.094C1.67735 117.127 1.85824 117.16 2.03913 117.16C2.38447 117.16 2.66403 117.094 2.86137 116.979C3.0587 116.847 3.15738 116.666 3.15738 116.42C3.15738 116.288 3.12448 116.157 3.0587 116.074C2.99292 115.976 2.9107 115.894 2.77914 115.828C2.66403 115.762 2.51604 115.696 2.33514 115.647C2.15425 115.598 1.95692 115.532 1.72669 115.482C1.48002 115.417 1.24979 115.351 1.0689 115.285C0.871567 115.219 0.723561 115.137 0.592004 115.038C0.460447 114.94 0.361781 114.825 0.296002 114.677C0.230223 114.545 0.197338 114.364 0.197338 114.183C0.197338 113.953 0.24667 113.739 0.328893 113.558C0.411117 113.378 0.542676 113.23 0.690678 113.098C0.83868 112.966 1.03601 112.884 1.24979 112.818C1.46357 112.753 1.71024 112.72 1.95691 112.72C2.2858 112.72 2.59825 112.769 2.86137 112.868C3.12448 112.966 3.37115 113.114 3.58493 113.279L3.28893 113.789Z" fill="white"/>
<path d="M7.67978 117.735C7.33444 117.735 7.02198 117.67 6.72598 117.522C6.42998 117.374 6.19975 117.193 5.98597 116.962C5.78863 116.732 5.62419 116.453 5.50908 116.157C5.39397 115.861 5.34464 115.548 5.34464 115.236C5.34464 114.907 5.41041 114.594 5.52552 114.282C5.64063 113.986 5.80508 113.706 6.01886 113.476C6.23264 113.246 6.47931 113.065 6.75887 112.917C7.03843 112.785 7.35088 112.72 7.69622 112.72C8.04156 112.72 8.354 112.786 8.65001 112.934C8.92957 113.082 9.17624 113.279 9.37358 113.509C9.57091 113.739 9.73535 114.019 9.85047 114.315C9.96558 114.611 10.0149 114.923 10.0149 115.236C10.0149 115.565 9.94914 115.877 9.83403 116.19C9.71891 116.486 9.55447 116.765 9.34069 116.979C9.12691 117.209 8.88024 117.39 8.60068 117.522C8.32112 117.653 8.00867 117.735 7.67978 117.735ZM5.98597 115.219C5.98597 115.466 6.01886 115.713 6.10109 115.943C6.18331 116.173 6.29843 116.387 6.44643 116.568C6.59443 116.749 6.77532 116.897 6.9891 116.995C7.20288 117.11 7.43311 117.16 7.67978 117.16C7.94289 117.16 8.17312 117.11 8.3869 116.995C8.60068 116.88 8.78157 116.732 8.91313 116.551C9.06113 116.37 9.17624 116.157 9.24202 115.926C9.32425 115.696 9.35713 115.466 9.35713 115.219C9.35713 114.973 9.32425 114.726 9.24202 114.496C9.1598 114.266 9.04468 114.052 8.89668 113.871C8.74868 113.69 8.56779 113.542 8.35401 113.443C8.14023 113.345 7.92644 113.279 7.66333 113.279C7.40021 113.279 7.16999 113.328 6.95621 113.443C6.74243 113.558 6.56154 113.706 6.42998 113.887C6.28198 114.068 6.16687 114.282 6.08464 114.512C6.01887 114.742 5.98597 114.989 5.98597 115.219Z" fill="white"/>
<path d="M11.9224 117.703V112.753H12.5473V117.144H15.31V117.703H11.9224Z" fill="white"/>
<path d="M18.8947 117.16C19.1907 117.16 19.4209 117.111 19.6183 116.996C19.8156 116.881 19.9636 116.733 20.0787 116.568C20.1938 116.387 20.2761 116.19 20.3254 115.96C20.3747 115.729 20.3912 115.499 20.3912 115.253V112.753H21.0161V115.253C21.0161 115.581 20.9832 115.91 20.901 116.206C20.8187 116.502 20.7036 116.765 20.5392 116.996C20.3747 117.226 20.1609 117.407 19.8814 117.538C19.6183 117.67 19.2894 117.736 18.9112 117.736C18.5165 117.736 18.1876 117.67 17.908 117.522C17.6449 117.39 17.4147 117.193 17.2502 116.963C17.0858 116.733 16.9707 116.469 16.8885 116.173C16.8227 115.877 16.7733 115.565 16.7733 115.253V112.753H17.3982V115.253C17.3982 115.499 17.4147 115.729 17.464 115.96C17.5134 116.19 17.5956 116.387 17.7107 116.568C17.8258 116.749 17.9738 116.881 18.1711 116.996C18.3685 117.111 18.6151 117.16 18.8947 117.16Z" fill="white"/>
<path d="M22.8416 115.186C22.8416 114.89 22.891 114.594 23.0061 114.298C23.1048 114.002 23.2692 113.739 23.4665 113.509C23.6639 113.279 23.9106 113.082 24.2066 112.934C24.5026 112.786 24.8315 112.72 25.2097 112.72C25.6537 112.72 26.0319 112.818 26.3444 113.016C26.6568 113.213 26.887 113.476 27.0515 113.789L26.5581 114.101C26.4759 113.937 26.3937 113.805 26.295 113.706C26.1964 113.608 26.0812 113.509 25.9497 113.443C25.8346 113.378 25.703 113.328 25.5715 113.312C25.4399 113.279 25.3084 113.262 25.1932 113.262C24.9137 113.262 24.6835 113.312 24.4697 113.427C24.2559 113.542 24.075 113.69 23.9434 113.871C23.7954 114.052 23.6968 114.266 23.6145 114.496C23.5323 114.726 23.4994 114.956 23.4994 115.186C23.4994 115.45 23.5488 115.696 23.631 115.926C23.7132 116.157 23.8283 116.37 23.9928 116.551C24.1572 116.732 24.3217 116.88 24.5355 116.979C24.7492 117.078 24.9795 117.143 25.2261 117.143C25.3577 117.143 25.4892 117.127 25.6208 117.094C25.7524 117.061 25.8839 117.012 26.0155 116.93C26.147 116.864 26.2621 116.765 26.3608 116.65C26.4759 116.535 26.5581 116.403 26.6239 116.255L27.1501 116.535C27.0679 116.716 26.9528 116.88 26.8213 117.028C26.6897 117.176 26.5253 117.291 26.3444 117.39C26.1635 117.489 25.9826 117.554 25.7688 117.62C25.555 117.686 25.3741 117.702 25.1768 117.702C24.8315 117.702 24.519 117.62 24.2394 117.472C23.9599 117.324 23.7132 117.127 23.4994 116.897C23.2857 116.65 23.1377 116.387 23.0225 116.074C22.9074 115.811 22.8416 115.499 22.8416 115.186Z" fill="white"/>
<path d="M28.9595 117.703V112.753H29.5844V117.703H28.9595Z" fill="white"/>
<path d="M33.8268 117.735C33.4814 117.735 33.169 117.67 32.873 117.522C32.577 117.374 32.3468 117.193 32.133 116.962C31.9356 116.732 31.7712 116.453 31.6561 116.157C31.541 115.861 31.4916 115.548 31.4916 115.236C31.4916 114.907 31.5574 114.594 31.6725 114.282C31.7876 113.986 31.9521 113.706 32.1659 113.476C32.3796 113.246 32.6263 113.065 32.9059 112.917C33.1854 112.785 33.4979 112.72 33.8432 112.72C34.1886 112.72 34.501 112.786 34.797 112.934C35.0766 113.082 35.3232 113.279 35.5206 113.509C35.7179 113.739 35.8824 114.019 35.9975 114.315C36.1126 114.611 36.1619 114.923 36.1619 115.236C36.1619 115.565 36.0961 115.877 35.981 116.19C35.8659 116.486 35.7015 116.765 35.4877 116.979C35.2739 117.209 35.0272 117.39 34.7477 117.522C34.4681 117.653 34.1557 117.735 33.8268 117.735ZM32.133 115.219C32.133 115.466 32.1659 115.713 32.2481 115.943C32.3303 116.173 32.4454 116.387 32.5934 116.568C32.7414 116.749 32.9223 116.897 33.1361 116.995C33.3499 117.11 33.5801 117.16 33.8268 117.16C34.0899 117.16 34.3201 117.11 34.5339 116.995C34.7477 116.88 34.9286 116.732 35.0601 116.551C35.2081 116.37 35.3232 116.157 35.389 115.926C35.4712 115.696 35.5041 115.466 35.5041 115.219C35.5041 114.973 35.4712 114.726 35.389 114.496C35.3068 114.266 35.1917 114.052 35.0437 113.871C34.8957 113.69 34.7148 113.542 34.501 113.443C34.2872 113.345 34.0734 113.279 33.8103 113.279C33.5472 113.279 33.317 113.328 33.1032 113.443C32.8894 113.558 32.7085 113.706 32.577 113.887C32.429 114.068 32.3139 114.282 32.2316 114.512C32.1659 114.742 32.133 114.989 32.133 115.219Z" fill="white"/>
<path d="M38.6943 113.921V117.703H38.0694V112.753H38.5627L41.6214 116.601V112.753H42.2463V117.686H41.7201L38.6943 113.921Z" fill="white"/>
<path d="M47.8378 117.144V117.703H44.4831V112.753H47.772V113.312H45.108V114.907H47.4267V115.433H45.108V117.144H47.8378Z" fill="white"/>
<path d="M52.6392 113.789C52.5898 113.723 52.5076 113.657 52.409 113.608C52.3103 113.542 52.2116 113.493 52.0965 113.443C51.9814 113.394 51.8498 113.361 51.7183 113.328C51.5867 113.295 51.4387 113.279 51.2907 113.279C50.9125 113.279 50.6165 113.345 50.452 113.493C50.2712 113.641 50.1889 113.838 50.1889 114.085C50.1889 114.216 50.2218 114.331 50.2712 114.414C50.3205 114.496 50.4027 114.578 50.5178 114.644C50.6329 114.71 50.7645 114.759 50.9289 114.808C51.0934 114.858 51.2907 114.907 51.5045 114.956C51.7676 115.006 51.9978 115.071 52.1952 115.154C52.409 115.219 52.5734 115.318 52.7214 115.417C52.8694 115.515 52.9845 115.647 53.0503 115.811C53.1325 115.959 53.1654 116.157 53.1654 116.37C53.1654 116.601 53.1161 116.814 53.0339 116.979C52.9352 117.16 52.8201 117.291 52.6556 117.406C52.4912 117.522 52.3103 117.604 52.0801 117.653C51.8498 117.702 51.6196 117.735 51.3729 117.735C50.9947 117.735 50.6329 117.67 50.2876 117.554C49.9423 117.439 49.6298 117.258 49.3503 117.028L49.6463 116.502C49.7285 116.584 49.8107 116.666 49.9423 116.732C50.0574 116.814 50.1889 116.88 50.3534 116.946C50.5014 117.012 50.6658 117.061 50.8467 117.094C51.0276 117.127 51.2085 117.16 51.3894 117.16C51.7347 117.16 52.0143 117.094 52.2116 116.979C52.409 116.847 52.5076 116.666 52.5076 116.42C52.5076 116.288 52.4747 116.157 52.409 116.074C52.3432 115.976 52.261 115.894 52.1294 115.828C52.0143 115.762 51.8663 115.696 51.6854 115.647C51.5045 115.598 51.3072 115.532 51.0769 115.482C50.8303 115.417 50.6 115.351 50.4192 115.285C50.2218 115.219 50.0738 115.137 49.9423 115.038C49.8107 114.94 49.712 114.825 49.6463 114.677C49.5805 114.545 49.5476 114.364 49.5476 114.183C49.5476 113.953 49.5969 113.739 49.6791 113.558C49.7614 113.378 49.8929 113.23 50.0409 113.098C50.1889 112.966 50.3863 112.884 50.6001 112.818C50.8138 112.753 51.0605 112.72 51.3072 112.72C51.6361 112.72 51.9485 112.769 52.2116 112.868C52.4747 112.966 52.7214 113.114 52.9352 113.279L52.6392 113.789Z" fill="white"/>
<path d="M57.8361 117.703V112.753H59.5463C59.941 112.753 60.2863 112.819 60.5823 112.95C60.8783 113.082 61.125 113.263 61.3388 113.476C61.5526 113.69 61.6841 113.953 61.7828 114.266C61.8815 114.578 61.9308 114.891 61.9308 115.22C61.9308 115.598 61.8815 115.943 61.7664 116.239C61.6512 116.535 61.4868 116.798 61.2895 117.012C61.0757 117.226 60.829 117.39 60.533 117.505C60.237 117.621 59.9081 117.686 59.5463 117.686H57.8361V117.703ZM61.3059 115.22C61.3059 114.94 61.273 114.677 61.1908 114.447C61.1086 114.217 60.9935 114.019 60.8455 113.838C60.6975 113.674 60.5166 113.542 60.2863 113.444C60.0726 113.345 59.8259 113.296 59.5463 113.296H58.461V117.127H59.5463C59.8259 117.127 60.089 117.078 60.3028 116.979C60.5166 116.881 60.7139 116.749 60.8455 116.568C60.9935 116.404 61.1086 116.19 61.1744 115.96C61.2566 115.746 61.3059 115.483 61.3059 115.22Z" fill="white"/>
<path d="M63.8544 117.703V112.753H64.4793V117.703H63.8544Z" fill="white"/>
<path d="M70.2023 117.028C69.7583 117.505 69.2649 117.735 68.7058 117.735C68.3769 117.735 68.0645 117.67 67.7849 117.522C67.5054 117.374 67.2587 117.193 67.0614 116.946C66.864 116.699 66.6996 116.436 66.5845 116.14C66.4693 115.844 66.4036 115.532 66.4036 115.203C66.4036 114.874 66.4693 114.545 66.5845 114.249C66.6996 113.953 66.864 113.69 67.0614 113.46C67.2587 113.23 67.5054 113.049 67.7849 112.917C68.0645 112.785 68.3769 112.72 68.7058 112.72C69.1827 112.72 69.5774 112.818 69.8898 113.016C70.2023 113.213 70.4325 113.476 70.597 113.789L70.1201 114.118C69.9721 113.822 69.7747 113.624 69.5281 113.476C69.2814 113.345 69.0018 113.262 68.7058 113.262C68.4591 113.262 68.2289 113.312 68.0151 113.427C67.8178 113.542 67.6369 113.674 67.4889 113.854C67.3409 114.035 67.2258 114.233 67.16 114.479C67.0942 114.726 67.0449 114.956 67.0449 115.203C67.0449 115.466 67.0942 115.713 67.1765 115.959C67.2587 116.19 67.3902 116.403 67.5382 116.584C67.6862 116.765 67.8671 116.897 68.0809 117.012C68.2947 117.127 68.5249 117.16 68.7716 117.16C69.3143 117.16 69.7912 116.897 70.2352 116.387V115.696H69.1663V115.219H70.7614V117.686H70.2352V117.028H70.2023Z" fill="white"/>
<path d="M72.7343 117.703V112.753H73.3592V117.703H72.7343Z" fill="white"/>
<path d="M79.1481 113.312H77.4379V117.703H76.813V113.312H75.1027V112.753H79.1481V113.312Z" fill="white"/>
<path d="M81.9441 112.753H82.4703L84.493 117.703H83.8188L83.2268 116.256H81.1547L80.5792 117.703H79.9049L81.9441 112.753ZM83.1116 115.762L82.2236 113.476L81.3027 115.762H83.1116Z" fill="white"/>
<path d="M86.2032 117.703V112.753H86.8281V117.144H89.5908V117.703H86.2032Z" fill="white"/>
<path d="M94.6721 117.144V117.703H91.3174V112.753H94.6064V113.312H91.9423V114.907H94.261V115.433H91.9423V117.144H94.6721Z" fill="white"/>
<path d="M99.474 113.789C99.4246 113.723 99.3424 113.657 99.2438 113.608C99.1451 113.542 99.0464 113.493 98.9313 113.443C98.8162 113.394 98.6846 113.361 98.5531 113.328C98.4215 113.295 98.2735 113.279 98.1255 113.279C97.7473 113.279 97.4513 113.345 97.2868 113.493C97.1059 113.641 97.0237 113.838 97.0237 114.085C97.0237 114.216 97.0566 114.331 97.1059 114.414C97.1553 114.496 97.2375 114.578 97.3526 114.644C97.4677 114.71 97.5993 114.759 97.7637 114.808C97.9282 114.858 98.1255 114.907 98.3393 114.956C98.6024 115.006 98.8326 115.071 99.03 115.154C99.2437 115.219 99.4082 115.318 99.5562 115.417C99.7042 115.515 99.8193 115.647 99.8851 115.811C99.9673 115.959 100 116.157 100 116.37C100 116.601 99.9509 116.814 99.8686 116.979C99.77 117.16 99.6549 117.291 99.4904 117.406C99.326 117.522 99.1451 117.604 98.9149 117.653C98.6846 117.702 98.4544 117.735 98.2077 117.735C97.8295 117.735 97.4677 117.67 97.1224 117.554C96.777 117.439 96.4646 117.258 96.185 117.028L96.481 116.502C96.5633 116.584 96.6455 116.666 96.7771 116.732C96.8922 116.814 97.0237 116.88 97.1882 116.946C97.3362 117.012 97.5006 117.061 97.6815 117.094C97.8624 117.127 98.0433 117.16 98.2242 117.16C98.5695 117.16 98.8491 117.094 99.0464 116.979C99.2437 116.847 99.3424 116.666 99.3424 116.42C99.3424 116.288 99.3095 116.157 99.2438 116.074C99.178 115.976 99.0957 115.894 98.9642 115.828C98.8491 115.762 98.7011 115.696 98.5202 115.647C98.3393 115.598 98.142 115.532 97.9117 115.482C97.6651 115.417 97.4348 115.351 97.2539 115.285C97.0566 115.219 96.9086 115.137 96.7771 115.038C96.6455 114.94 96.5468 114.825 96.481 114.677C96.4153 114.545 96.3824 114.364 96.3824 114.183C96.3824 113.953 96.4317 113.739 96.5139 113.558C96.5962 113.378 96.7277 113.23 96.8757 113.098C97.0237 112.966 97.2211 112.884 97.4348 112.818C97.6486 112.753 97.8953 112.72 98.142 112.72C98.4709 112.72 98.7833 112.769 99.0464 112.868C99.3095 112.966 99.5562 113.114 99.77 113.279L99.474 113.789Z" fill="white"/>
<path d="M91.8927 63.7146L81.6312 45.9379L74.0831 44.3921L63.5257 46.8423L58.9705 53.4038C58.9705 53.4038 63.3283 52.9598 68.8866 60.031C71.6 63.4843 73.4254 68.4342 74.4778 73.0223C75.004 75.3245 77.0432 76.969 79.3948 76.969H84.2295C91.0376 76.9525 95.2803 69.6018 91.8927 63.7146Z" fill="url(#paint0_linear_901_629)"/>
<path opacity="0.45" d="M67.3573 46.1182L63.4928 46.8911L58.987 53.3867C58.987 53.3867 63.3448 52.9427 68.9031 60.0139C71.6165 63.4673 73.4418 68.4171 74.4943 73.0052C75.0205 75.3074 77.0597 76.9519 79.4112 76.9519H84.246C84.542 76.9519 84.838 76.919 85.134 76.8861C86.4167 74.7977 84.986 69.0914 80.0526 60.1784C75.1192 51.2653 67.3573 46.1182 67.3573 46.1182Z" fill="url(#paint1_linear_901_629)"/>
<path d="M62.1279 12.1605L73.2116 31.3679C73.7378 32.2724 72.8169 33.3083 71.8467 32.9466C66.7981 30.9896 61.8812 31.3514 58.9705 31.8777C57.326 32.1737 55.6651 31.4337 54.8264 29.9701L43.7098 10.7134L62.1279 12.1605Z" fill="url(#paint2_linear_901_629)"/>
<path opacity="0.45" d="M53.0833 11.6997L46.4068 15.3669L54.8429 29.9697C55.6816 31.4169 57.3425 32.1733 58.987 31.8773C60.4177 31.6142 62.3252 31.4004 64.4959 31.4826L53.0833 11.6997Z" fill="url(#paint3_linear_901_629)"/>
<path d="M57.655 4.41539C54.2509 -1.4718 45.7655 -1.4718 42.3614 4.41539L41.8188 5.35277L18.9607 44.9515C18.2042 46.2671 19.75 47.6978 21.0163 46.8427C28.8275 41.5146 37.0169 37.3376 40.2236 35.7754C41.0459 35.3643 41.6872 34.6736 41.9997 33.802C42.6574 31.9274 44.4499 27.9806 49.1202 21.5178C58.543 8.47723 65.088 17.2752 65.088 17.2752L57.655 4.41539Z" fill="url(#paint4_linear_901_629)"/>
<path opacity="0.45" d="M65.0878 17.275L58.6744 6.15838C55.2374 5.53349 51.3236 6.33929 47.5249 10.6971C43.2657 15.5647 33.2838 33.8841 29.0904 41.7611C33.9252 38.9326 38.135 36.7948 40.2235 35.7752C41.0457 35.3641 41.687 34.6735 41.9995 33.8019C42.6573 31.9272 44.4497 27.9804 49.12 21.5177C58.5264 8.49351 65.0878 17.275 65.0878 17.275Z" fill="url(#paint5_linear_901_629)"/>
<path d="M77.224 48.3225C82.1738 47.566 84.0978 50.4438 85.1174 51.9732L79.1644 41.6623C73.8364 32.4204 58.4442 32.4533 42.1804 39.7383C22.7263 48.454 9.01149 62.1689 9.01149 62.1689L8.12347 63.6982C4.71942 69.5854 8.97859 76.9526 15.7702 76.9526H18.7961C20.3748 76.9526 21.937 76.5415 23.3019 75.7521C25.7028 74.3708 29.6824 71.1805 36.2603 66.2307C54.3823 52.5816 71.2874 49.2269 77.224 48.3225Z" fill="url(#paint6_linear_901_629)"/>
<path d="M52.9684 44.3753C34.9615 50.0322 15.8199 67.6774 9.2749 74.0908C10.8536 75.8175 13.1065 76.9522 15.7705 76.9522H18.7964C20.3751 76.9522 21.9373 76.541 23.3022 75.7517C25.7031 74.3703 29.6827 71.1801 36.2606 66.2303C54.3991 52.5647 71.2877 49.2265 77.2407 48.322C82.1906 47.5656 84.1146 50.4434 85.1341 51.9727L79.1812 41.6619C79.1483 41.5961 79.099 41.5304 79.0661 41.4646C73.2447 40.3957 64.9565 40.6094 52.9684 44.3753Z" fill="url(#paint7_linear_901_629)"/>
<defs>
<linearGradient id="paint0_linear_901_629" x1="84.2364" y1="77.8422" x2="71.8021" y2="50.5245" gradientUnits="userSpaceOnUse">
<stop stop-color="#7F7F7F"/>
<stop offset="1"/>
</linearGradient>
<linearGradient id="paint1_linear_901_629" x1="80.2148" y1="78.1074" x2="69.4039" y2="56.4856" gradientUnits="userSpaceOnUse">
<stop stop-color="#7F7F7F" stop-opacity="0"/>
<stop offset="1"/>
</linearGradient>
<linearGradient id="paint2_linear_901_629" x1="65.8686" y1="33.9599" x2="55.5068" y2="15.8737" gradientUnits="userSpaceOnUse">
<stop stop-color="#7F7F7F"/>
<stop offset="1"/>
</linearGradient>
<linearGradient id="paint3_linear_901_629" x1="60.6253" y1="36.6206" x2="53.9078" y2="19.5121" gradientUnits="userSpaceOnUse">
<stop stop-color="#7F7F7F" stop-opacity="0"/>
<stop offset="1"/>
</linearGradient>
<linearGradient id="paint4_linear_901_629" x1="59.6664" y1="7.43372" x2="13.3823" y2="37.9391" gradientUnits="userSpaceOnUse">
<stop stop-color="#7E53FA"/>
<stop offset="1" stop-color="#481C86"/>
</linearGradient>
<linearGradient id="paint5_linear_901_629" x1="56.3617" y1="13.6523" x2="48.6996" y2="25.4078" gradientUnits="userSpaceOnUse">
<stop stop-color="#7E53FA"/>
<stop offset="1" stop-color="#481C86" stop-opacity="0"/>
</linearGradient>
<linearGradient id="paint6_linear_901_629" x1="78.8864" y1="34.9739" x2="28.2651" y2="68.3379" gradientUnits="userSpaceOnUse">
<stop stop-color="#7E53FA"/>
<stop offset="1" stop-color="#481C86"/>
</linearGradient>
<linearGradient id="paint7_linear_901_629" x1="60.6811" y1="42.3513" x2="49.7335" y2="59.1477" gradientUnits="userSpaceOnUse">
<stop stop-color="#7E53FA"/>
<stop offset="1" stop-color="#481C86" stop-opacity="0"/>
</linearGradient>
</defs>
</svg>
