<svg width="128" height="115" viewBox="0 0 128 115" fill="none" xmlns="http://www.w3.org/2000/svg">
<path d="M125.845 95.3612L110.635 69.0122L99.4511 66.7307L83.8161 70.3543L77.0835 80.0842C77.0835 80.0842 83.5477 79.4355 91.779 89.9036C95.8051 95.0257 98.5116 102.362 100.055 109.162C100.838 112.584 103.835 115 107.347 115H114.504C124.592 114.978 130.9 104.085 125.845 95.3612Z" fill="url(#paint0_linear_903_501)"/>
<path opacity="0.45" d="M89.4975 69.3253L83.7714 70.4661L77.1058 80.0842C77.1058 80.0842 83.5701 79.4355 91.8013 89.9035C95.8275 95.0257 98.534 102.362 100.077 109.162C100.86 112.584 103.857 115 107.369 115H114.527C114.974 115 115.399 114.955 115.824 114.911C117.725 111.824 115.6 103.346 108.309 90.1719C101.017 76.9303 89.4975 69.3253 89.4975 69.3253Z" fill="url(#paint1_linear_903_501)"/>
<path d="M81.7807 18.9983L98.1985 47.4499C98.9813 48.7919 97.6169 50.3353 96.1854 49.7761C88.6923 46.8683 81.4228 47.4051 77.1059 48.188C74.6678 48.6353 72.2073 47.517 70.9548 45.3697L54.4922 16.851L81.7807 18.9983Z" fill="url(#paint2_linear_903_501)"/>
<path opacity="0.45" d="M68.3601 18.3272L58.4736 23.7402L70.9771 45.3697C72.2073 47.517 74.6678 48.613 77.1282 48.188C79.2308 47.8077 82.0715 47.4946 85.2924 47.6064L68.3601 18.3272Z" fill="url(#paint3_linear_903_501)"/>
<path d="M75.1375 7.52369C70.1048 -1.19967 57.5118 -1.19967 52.4791 7.52369L51.6739 8.91049L17.7869 67.5807C16.6462 69.549 18.9501 71.6516 20.829 70.3766C32.4154 62.4809 44.5386 56.3074 49.2805 53.9812C50.5107 53.3773 51.4502 52.3484 51.9199 51.051C52.9041 48.2775 55.5435 42.4395 62.4774 32.8438C76.4348 13.5406 86.1423 26.5585 86.1423 26.5585L75.1375 7.52369Z" fill="url(#paint4_linear_903_501)"/>
<path opacity="0.45" d="M86.1423 26.5809L76.6361 10.1183C71.5363 9.20126 65.7431 10.3867 60.1065 16.851C53.7988 24.0757 39.0138 51.2076 32.7956 62.8611C39.9756 58.656 46.1938 55.5022 49.3029 54.0036C50.5331 53.3996 51.4726 52.3707 51.9423 51.0734C52.9265 48.2998 55.5658 42.4619 62.4998 32.8662C76.4348 13.5629 86.1423 26.5809 86.1423 26.5809Z" fill="url(#paint5_linear_903_501)"/>
<path d="M104.148 72.591C111.485 71.4727 114.326 75.7449 115.824 78.004L107.011 62.7269C99.1156 49.038 76.3006 49.0827 52.2331 59.8639C23.4236 72.77 3.09147 93.1021 3.09147 93.1021L1.77178 95.3836C-3.26093 104.107 3.02438 115 13.1122 115H17.5857C19.9343 115 22.2381 114.396 24.2736 113.233C27.83 111.175 33.7351 106.456 43.465 99.119C70.3061 78.8763 95.3354 73.9107 104.148 72.591Z" fill="url(#paint6_linear_903_501)"/>
<path d="M68.2035 66.7307C41.519 75.0962 13.1792 101.244 3.47171 110.75C5.79794 113.3 9.15308 114.978 13.0898 114.978H17.5633C19.9119 114.978 22.2158 114.374 24.2512 113.211C27.8077 111.153 33.7127 106.433 43.4426 99.0966C70.3061 78.854 95.3354 73.9107 104.148 72.5687C111.485 71.4503 114.326 75.7225 115.824 77.9816L107.011 62.7046C106.944 62.6151 106.899 62.5032 106.832 62.4138C98.2209 60.8257 85.9634 61.1612 68.2035 66.7307Z" fill="url(#paint7_linear_903_501)"/>
<defs>
<linearGradient id="paint0_linear_903_501" x1="114.516" y1="116.303" x2="96.0962" y2="75.8346" gradientUnits="userSpaceOnUse">
<stop stop-color="#333333"/>
<stop offset="1"/>
</linearGradient>
<linearGradient id="paint1_linear_903_501" x1="108.559" y1="116.697" x2="92.5434" y2="84.6663" gradientUnits="userSpaceOnUse">
<stop stop-color="#333333" stop-opacity="0"/>
<stop offset="1"/>
</linearGradient>
<linearGradient id="paint2_linear_903_501" x1="87.3063" y1="51.2956" x2="71.9561" y2="24.5025" gradientUnits="userSpaceOnUse">
<stop stop-color="#333333"/>
<stop offset="1"/>
</linearGradient>
<linearGradient id="paint3_linear_903_501" x1="79.5387" y1="55.2376" x2="69.5874" y2="29.893" gradientUnits="userSpaceOnUse">
<stop stop-color="#333333" stop-opacity="0"/>
<stop offset="1"/>
</linearGradient>
<linearGradient id="paint4_linear_903_501" x1="78.1181" y1="11.9989" x2="9.5523" y2="57.19" gradientUnits="userSpaceOnUse">
<stop stop-color="white"/>
<stop offset="1" stop-color="#737373"/>
</linearGradient>
<linearGradient id="paint5_linear_903_501" x1="73.2228" y1="21.2113" x2="61.872" y2="38.6261" gradientUnits="userSpaceOnUse">
<stop stop-color="white"/>
<stop offset="1" stop-color="#737373" stop-opacity="0"/>
</linearGradient>
<linearGradient id="paint6_linear_903_501" x1="106.591" y1="52.7975" x2="31.6002" y2="102.223" gradientUnits="userSpaceOnUse">
<stop stop-color="white"/>
<stop offset="1" stop-color="#737373"/>
</linearGradient>
<linearGradient id="paint7_linear_903_501" x1="79.6212" y1="63.7273" x2="63.4032" y2="88.6097" gradientUnits="userSpaceOnUse">
<stop stop-color="white"/>
<stop offset="1" stop-color="#737373" stop-opacity="0"/>
</linearGradient>
</defs>
</svg>
